<svg xmlns="http://www.w3.org/2000/svg" viewBox="0 0 40 40"><path class="logo__steemit" d="M32.7 11.38a15.167 15.167 0 00-5.338-3.457c1.132-3.33 5.146-4.542 5.146-4.542S23.142-1.48 12.8.459c-3.448.549-6.754 2.667-9.172 5.461a14.37 14.37 0 001.556 20.388c.94.804 3.036 2.055 3.075 2.118-1.377 3.496-5.776 4.453-5.776 4.453s5.814 3.636 13.623 4.58c2.07.256 4.27.32 6.548.077 3.614-.293 7.216-2.207 9.956-4.9 5.93-5.843 5.982-15.36.09-21.255zm-2.675 18.935c-2.213 2.169-5.519 3.546-8.066 3.738-1.801.178-3.73.204-5.583-.026-2.727-.331-4.695-1.084-6.625-1.811.978-.945 1.955-2.246 2.354-3.369a2.594 2.594 0 00-.077-2.054 10.984 10.984 0 012.238-12.682c2.47-2.411 5.866-3.547 9.314-3.126a11.215 11.215 0 016.638 3.215c4.374 4.39 4.22 11.815-.193 16.115z"/></svg>